<svg width="98" height="110" viewBox="0 0 98 110" fill="none" xmlns="http://www.w3.org/2000/svg">
<path d="M39.612 79.5704C55.9383 71.7826 73.5888 86.1582 78.2136 99.8653C51.4092 118.101 21.9075 101.274 21.9075 101.274C21.5985 96.9779 29.21 84.5346 39.612 79.5704Z" fill="#93F2FF"/>
<path d="M49.8523 109.365C42.0938 109.365 24.1416 106.968 12.1948 95.3543C3.73491 87.133 -0.360165 75.8039 0.0248215 61.683C0.270036 52.2494 2.32003 43.9301 6.08161 36.9603C9.23997 31.09 13.7372 26.0475 19.2055 22.2319C28.4844 15.72 39.3792 13.4155 45.8946 13.4155H45.9068C58.2337 13.4155 69.8446 16.8441 78.6012 23.0866C88.4883 30.1202 94.6897 40.5578 96.5411 53.2731C98.0908 63.9165 96.2615 80.7828 85.9969 93.2923C77.9318 103.127 66.3111 108.525 51.4536 109.331C50.9926 109.343 50.4531 109.365 49.8523 109.365ZM1.98653 61.7368C1.61626 75.2872 5.51271 86.1265 13.5631 93.9511C25.9268 105.968 45.0363 107.712 51.3555 107.369C65.6417 106.595 76.7866 101.44 84.4888 92.0457C94.3391 80.0309 96.0923 63.7989 94.6014 53.5498C90.499 25.3863 65.806 15.3772 45.9068 15.3698H45.8946C39.6637 15.3698 29.2372 17.5862 20.3335 23.8336C8.61957 32.0574 2.44754 44.8093 1.98653 61.7368Z" fill="black"/>
<path d="M49.6858 86.8715C45.343 86.8715 40.2842 85.0176 37.4054 79.5979C37.3441 79.4828 37.3073 79.3579 37.2951 79.2306C37.2828 79.1032 37.2951 78.9734 37.3343 78.851C37.3711 78.7261 37.4349 78.6134 37.5158 78.513C37.5967 78.415 37.6972 78.3318 37.8125 78.273C37.9253 78.2118 38.0503 78.175 38.1803 78.1628C38.3078 78.1506 38.4378 78.1628 38.5604 78.1995C38.683 78.2387 38.7983 78.2999 38.8988 78.3832C38.9993 78.464 39.0802 78.5644 39.1415 78.6795C42.1675 84.3759 48.0183 85.4755 52.1134 84.6845C55.7131 83.9743 58.9107 81.9318 61.0637 78.9636C61.1373 78.8534 61.2304 78.7603 61.3408 78.6869C61.4511 78.6159 61.5737 78.5669 61.7037 78.5448C61.8337 78.5203 61.9661 78.5228 62.0936 78.5522C62.2211 78.5816 62.3437 78.6355 62.4491 78.7138C62.557 78.7897 62.6453 78.8877 62.714 79.0004C62.7826 79.1106 62.8268 79.2355 62.8464 79.3653C62.866 79.4951 62.8587 79.6298 62.8243 79.7571C62.79 79.882 62.7311 80.002 62.6527 80.1073C60.2079 83.4771 56.5738 85.8012 52.4836 86.6094C51.5616 86.7833 50.6249 86.8715 49.6858 86.8715Z" fill="black"/>
<path d="M70.4285 52.0293C70.0901 49.0905 66.456 48.8848 64.0333 50.1387C63.9573 50.1803 63.8715 50.2023 63.7832 50.2023C63.6949 50.2048 63.6091 50.1852 63.5306 50.146C63.4521 50.1068 63.3835 50.0505 63.332 49.9795C63.2805 49.9109 63.2462 49.8276 63.2315 49.7419C61.0245 36.7622 39.583 38.021 37.5649 50.1215C37.5502 50.2097 37.5134 50.2905 37.4595 50.3615C37.4055 50.4301 37.3344 50.4864 37.2559 50.5256C37.175 50.5623 37.0892 50.5795 37.0009 50.577C36.9126 50.5746 36.8268 50.5501 36.7483 50.506C34.9092 49.5068 33.0701 49.5117 31.5743 50.6676C29.6567 52.1517 29.8578 54.7232 30.976 56.0555C32.3811 57.7232 34.9754 57.7526 36.9543 56.6726C37.0328 56.631 37.1211 56.604 37.2118 56.5991C37.3025 56.5942 37.3933 56.6089 37.4766 56.6408C37.56 56.6751 37.636 56.7265 37.6998 56.7902C37.7611 56.8563 37.8101 56.9346 37.8371 57.0204C38.8547 59.9592 40.9832 62.56 43.8326 63.8115C50.5024 66.329 60.1638 64.4506 62.8784 56.7975C62.9151 56.6922 62.9911 56.6065 63.0917 56.5575C63.1922 56.5061 63.3075 56.4987 63.4129 56.5306C66.0097 57.3412 70.8944 56.0579 70.4285 52.0293Z" fill="#DCB7BC"/>
<path d="M49.7862 61.781C48.3027 61.7859 46.8338 61.514 45.4508 60.9777C45.3258 60.9361 45.213 60.8675 45.1149 60.7793C45.0168 60.6912 44.9383 60.5834 44.8844 60.4634C44.828 60.3458 44.7985 60.2161 44.7936 60.0838C44.7887 59.9516 44.8108 59.8218 44.8598 59.6993C44.9089 59.5744 44.98 59.4642 45.0732 59.3687C45.1664 59.2756 45.2743 59.1997 45.3969 59.1507C45.5195 59.0993 45.6494 59.0724 45.7818 59.0748C45.9143 59.0748 46.0442 59.1018 46.1644 59.1556C47.4812 59.6577 48.8863 59.8805 50.2938 59.812C51.7013 59.7434 53.0794 59.3834 54.3398 58.7564C54.4551 58.6977 54.5801 58.6609 54.7076 58.6511C54.8352 58.6413 54.9651 58.6585 55.0877 58.6977C55.2103 58.7369 55.3231 58.8005 55.4212 58.8862C55.5193 58.9695 55.6002 59.0724 55.6591 59.1875C55.7179 59.3001 55.7523 59.425 55.7621 59.5548C55.7719 59.6822 55.7572 59.812 55.7155 59.9344C55.6738 60.0569 55.6125 60.1695 55.5267 60.2675C55.4433 60.3654 55.3403 60.4463 55.225 60.505C53.538 61.3499 51.6743 61.7883 49.7862 61.781Z" fill="black"/>
<path d="M67.5347 14.5862C67.3337 14.5887 67.1399 14.525 66.9757 14.4099C66.8702 14.3364 66.7795 14.2433 66.7108 14.1356C66.6422 14.0278 66.5931 13.9054 66.571 13.778C66.549 13.6531 66.5514 13.5233 66.5784 13.396C66.6054 13.2711 66.6593 13.1511 66.7304 13.0458C70.6735 7.41797 76.051 2.94364 82.3064 0.0881003C82.5443 -0.0196559 82.814 -0.0294519 83.0568 0.0636103C83.2995 0.154223 83.4982 0.337899 83.6061 0.573003C83.714 0.810557 83.7238 1.07995 83.633 1.3224C83.5423 1.5673 83.3584 1.76322 83.1205 1.87098C77.1839 4.57958 72.081 8.82615 68.339 14.1674C68.2483 14.2972 68.1282 14.4025 67.9884 14.476C67.8486 14.5495 67.6941 14.5862 67.5347 14.5862Z" fill="black"/>
<path d="M65.9431 15.3598C65.693 15.3623 65.4551 15.2668 65.2712 15.0978C65.0873 14.9288 64.9794 14.6961 64.9623 14.4463C64.7072 10.7116 65.7273 7.00136 67.8533 3.91562C68.0029 3.705 68.2285 3.55806 68.4835 3.51398C68.7385 3.46745 69.0009 3.52377 69.2143 3.67072C69.4276 3.8201 69.5747 4.04541 69.6213 4.30011C69.6679 4.55481 69.6115 4.81685 69.4644 5.02991C67.8141 7.42504 66.9166 10.2561 66.8847 13.1606C70.5801 12.3206 74.8395 11.0251 76.1048 10.4177C76.3402 10.3075 76.6099 10.2928 76.8551 10.3785C77.1003 10.4643 77.3014 10.6455 77.4142 10.8781C77.527 11.1132 77.5417 11.3826 77.4559 11.6275C77.3701 11.8749 77.1886 12.0757 76.9532 12.1859C75.276 12.9892 69.9205 14.5443 66.1393 15.328C66.0731 15.3476 66.0069 15.3574 65.9407 15.3598H65.9431Z" fill="black"/>
<path d="M16.2506 33.2183C16.0642 33.2158 15.8803 33.1619 15.7234 33.0591C15.5665 32.9562 15.4414 32.8117 15.3629 32.6427C15.2845 32.4713 15.2599 32.2827 15.2869 32.0966C15.3139 31.9105 15.3924 31.7366 15.515 31.5946C18.0112 28.7268 21.1083 26.4394 24.5879 24.8965C24.8257 24.7912 25.0955 24.7839 25.3382 24.8769C25.581 24.9725 25.7772 25.1586 25.8826 25.3961C25.9881 25.6337 25.993 25.9031 25.8998 26.1455C25.8066 26.388 25.6178 26.5839 25.3824 26.6868C22.1652 28.1121 19.2986 30.2256 16.9887 32.8778C16.898 32.9856 16.7852 33.0689 16.6577 33.1276C16.5302 33.1864 16.3928 33.2158 16.2531 33.2183H16.2506Z" fill="black"/>
<path d="M7.74923 72.9725C7.53834 72.9725 7.33482 72.904 7.16562 72.7791C6.99642 72.6542 6.87136 72.4778 6.81006 72.277C3.75714 62.0304 4.70367 51.0099 9.46327 41.4367C9.58098 41.204 9.7845 41.0277 10.0322 40.9445C10.2798 40.8636 10.5471 40.8832 10.7801 41.0008C11.013 41.1159 11.1896 41.3192 11.2705 41.5665C11.3514 41.8139 11.3318 42.0832 11.2166 42.3159C6.68255 51.4384 5.77771 61.9398 8.6884 71.704C8.72518 71.8264 8.73989 71.9562 8.72763 72.0836C8.71537 72.2134 8.67614 72.3382 8.61483 72.4509C8.55353 72.566 8.47016 72.6664 8.36962 72.7472C8.26908 72.8305 8.15383 72.8893 8.03122 72.9285C7.9405 72.9554 7.84486 72.9701 7.74923 72.9725Z" fill="black"/>
<path d="M11.1258 83.6676C10.986 83.6652 10.8487 83.6334 10.7212 83.5746C10.5936 83.5182 10.4808 83.4325 10.3901 83.3272C9.5147 82.3109 8.90166 81.0937 8.60495 79.7884C8.57308 79.6611 8.56817 79.5288 8.58779 79.4015C8.60741 79.2717 8.654 79.1492 8.72266 79.0366C8.79132 78.9264 8.87959 78.8308 8.98749 78.7549C9.09538 78.679 9.21309 78.6251 9.3406 78.5957C9.46811 78.5664 9.60052 78.5639 9.72803 78.586C9.85555 78.608 9.98061 78.657 10.0885 78.728C10.1964 78.799 10.292 78.8896 10.3656 78.9974C10.4392 79.1051 10.4907 79.2251 10.5176 79.3549C10.7457 80.3492 11.2116 81.2725 11.8761 82.0488C11.9963 82.1884 12.0747 82.3623 12.1017 82.5484C12.1287 82.7321 12.1017 82.9207 12.0232 83.0897C11.9448 83.2587 11.8222 83.4031 11.6652 83.506C11.5083 83.6064 11.3268 83.6627 11.1405 83.6652H11.1258V83.6676Z" fill="black"/>
<path d="M49.6635 79.7518C49.5237 79.7543 49.3864 79.7249 49.2589 79.6686C49.1314 79.6122 49.0161 79.529 48.9254 79.4261C48.8322 79.3208 48.7636 79.1984 48.7219 79.0661C48.6802 78.9314 48.6679 78.7918 48.6851 78.6522C49.2344 74.1975 49.2221 69.6889 48.6434 65.2341C48.6287 65.1068 48.6361 64.977 48.6704 64.8545C48.7047 64.7296 48.7636 64.6145 48.842 64.5117C48.9205 64.4113 49.0186 64.3255 49.1314 64.2619C49.2442 64.1982 49.3668 64.1566 49.4943 64.1394C49.6218 64.1247 49.7518 64.1345 49.8768 64.1688C50.0019 64.2006 50.1172 64.2594 50.2201 64.3378C50.3207 64.4186 50.4065 64.5166 50.4703 64.6268C50.534 64.7394 50.5757 64.8619 50.5904 64.9892C51.1887 69.6081 51.2034 74.2808 50.6321 78.8996C50.6002 79.1347 50.4874 79.3502 50.3084 79.5069C50.1319 79.6637 49.9014 79.7518 49.666 79.7518H49.6635Z" fill="black"/>
<path d="M58.4152 37.3078C57.4834 36.3821 50.3232 31.9469 41.3728 37.5527C39.3155 38.8433 37.9031 41.0548 37.1552 43.3617C36.6647 44.8997 35.9463 48.7495 37.5083 49.974C38.3395 50.6206 40.1173 49.8589 41.0197 49.6312C42.4567 49.2712 43.8765 48.8328 45.2717 48.3332C48.0476 47.3267 50.7425 46.112 53.3344 44.6989C54.5359 44.0523 55.4972 43.4621 56.3971 42.8646C56.5884 42.7372 56.8238 42.6858 57.0518 42.725C57.2799 42.7642 57.4834 42.8891 57.6232 43.0727C59.4647 45.5071 62.4416 49.1046 63.5917 48.5806C65.2273 47.8483 62.7972 37.1829 58.4152 37.3078Z" fill="black"/>
</svg>
