<svg width="99" height="125" viewBox="0 0 99 125" fill="none" xmlns="http://www.w3.org/2000/svg">
<path d="M35.5904 94.4491C43.143 89.938 52.8044 88.7796 60.9406 92.1274C69.5476 95.703 77.3699 107.027 78.0762 113.924C78.0762 113.924 48.9987 131.209 24.0996 116.478C23.0771 115.873 21.1571 115.498 20.6666 114.274C20.1762 113.049 21.2625 111.298 21.7726 110.201C24.7421 103.785 29.4845 98.0957 35.5904 94.4491Z" fill="#F5EAEB"/>
<path d="M50.9383 124.038C44.4009 124.038 31.7847 123.016 20.6569 116.174C7.85423 108.305 0.92202 95.2643 0.0588665 77.416C-0.590951 63.9979 4.16376 50.9275 13.1018 41.5576C22.4347 31.7739 35.7253 26.6016 51.5367 26.6016C65.2098 26.6016 76.9212 31.3428 85.4081 40.316C94.79 50.2345 99.6697 64.6542 98.7992 79.8821C97.0165 111.08 66.7522 124.035 50.9457 124.038H50.9383ZM51.5391 28.5608C36.277 28.5608 23.4793 33.5225 14.5241 42.9095C5.94156 51.8924 1.39774 64.4362 2.01813 77.3205C4.02889 118.846 39.9552 122.078 50.9383 122.078C66.0975 122.078 95.1259 109.662 96.8326 79.7695C97.6737 65.0754 92.9876 51.1896 83.976 41.6605C75.8791 33.0914 64.6581 28.5608 51.5391 28.5608Z" fill="black"/>
<path d="M50.5976 108.099C50.5019 108.099 50.4087 108.09 50.3156 108.068C50.1611 108.036 50.0164 107.97 49.8913 107.872C49.1557 107.502 47.704 106.184 44.0896 101.678C41.7135 98.7173 38.6679 94.6324 37.2408 92.056C37.1745 91.9434 37.1329 91.8185 37.1157 91.6911C37.0985 91.5613 37.1083 91.4291 37.1427 91.3042C37.177 91.1793 37.2383 91.0617 37.3168 90.9589C37.3977 90.8584 37.4982 90.7727 37.611 90.7091C37.7263 90.6454 37.8513 90.6062 37.9813 90.594C38.1113 90.5793 38.2412 90.5915 38.3663 90.6282C38.4913 90.665 38.6066 90.7262 38.7096 90.8095C38.8101 90.8927 38.8935 90.9931 38.9548 91.1082C41.3628 95.4552 48.6775 104.495 50.4799 105.944C51.2866 105.119 53.0718 102.8 54.673 100.721C56.8996 97.8283 59.4204 94.5515 61.6101 92.127C61.6959 92.0315 61.8014 91.9556 61.9166 91.8993C62.0343 91.8454 62.1594 91.8136 62.2894 91.8062C62.4169 91.7989 62.5468 91.8185 62.667 91.8601C62.7896 91.9042 62.9 91.9703 62.9956 92.056C63.0912 92.1442 63.1697 92.247 63.2236 92.3646C63.28 92.4797 63.3119 92.6046 63.3193 92.7344C63.3242 92.8617 63.307 92.9915 63.2629 93.1115C63.2187 93.234 63.1525 93.3442 63.0667 93.4397C60.9284 95.8079 58.4322 99.0528 56.2277 101.916C52.2111 107.142 51.3921 108.099 50.5951 108.099H50.5976Z" fill="black"/>
<path d="M68.1771 68.6168C66.9289 68.2004 65.5753 68.2176 64.337 68.6608C64.288 68.678 64.2365 68.6853 64.1825 68.6804C64.131 68.6731 64.0795 68.6559 64.0354 68.6266C63.9912 68.5996 63.9545 68.5604 63.9299 68.5139C63.903 68.4698 63.8858 68.4184 63.8834 68.367C63.1134 52.1619 34.9873 51.1651 35.6641 68.1759C35.669 68.2519 35.6519 68.3302 35.6175 68.4012C35.5832 68.4723 35.5317 68.531 35.4655 68.5751C35.3993 68.6192 35.3257 68.6461 35.2473 68.6535C35.1688 68.6608 35.0903 68.6486 35.0192 68.6168C32.4469 67.4339 28.5946 69.9172 30.2547 73.0078C30.9903 74.3719 33.8569 74.9425 36.4169 74.2323C36.6082 74.1833 36.8093 74.2078 36.9809 74.3009C37.1526 74.394 37.285 74.5482 37.3512 74.7344C38.3762 77.6266 39.9431 80.1761 42.2432 81.5622C49.0577 85.6716 60.0188 82.9459 63.1232 74.4748C63.1722 74.3474 63.2654 74.2446 63.3856 74.1858C63.5057 74.1246 63.643 74.1123 63.773 74.1515C65.4086 74.607 67.6253 74.4748 68.9691 73.4413C70.7248 72.0968 70.2491 69.3882 68.1746 68.6168H68.1771Z" fill="#F5EAEB"/>
<path d="M51.1199 58.7205C53.8148 62.6095 57.8388 65.3818 62.4341 66.5182C62.5322 66.5402 62.6327 66.5426 62.7308 66.5182C62.8289 66.4937 62.9221 66.4545 63.0005 66.3908C63.079 66.3296 63.1403 66.2512 63.1845 66.1606C63.2286 66.07 63.2507 65.9696 63.2482 65.8716C62.8755 51.1629 40.6395 50.4649 36.3213 62.5998C34.2051 68.5386 37.7925 67.3312 41.5737 65.5728C44.5899 64.3802 49.4525 61.2895 51.1199 58.7181V58.7205Z" fill="black"/>
<path d="M37.1696 67.9923C36.5492 68.0217 35.9387 67.8111 35.4678 67.407C34.1805 66.2389 34.8107 63.9172 35.3967 62.2641C36.5713 58.958 39.0112 56.3596 42.4516 54.7457C45.6516 53.2738 49.2145 52.7889 52.6917 53.3473C58.1379 54.2142 64.0304 57.9514 64.2167 65.8372C64.2241 66.0846 64.1726 66.3319 64.0672 66.5597C63.9617 66.785 63.8072 66.9834 63.6111 67.1401C63.4149 67.2993 63.1844 67.4095 62.9367 67.4658C62.6915 67.5197 62.434 67.5172 62.1888 67.4585C57.8044 66.3662 53.9006 63.8633 51.0855 60.3319C48.8148 62.8788 44.5726 65.4258 41.9489 66.4544C40.2642 67.265 38.5428 67.9923 37.1696 67.9923ZM49.9723 55.1057C44.7958 55.1057 39.1411 57.5988 37.2432 62.9425C36.3433 65.4748 36.7822 65.9646 36.7871 65.9695C36.9538 66.1238 37.7189 66.305 41.1593 64.6984L41.2157 64.6739C44.3078 63.4494 48.8492 60.4323 50.2886 58.2012C50.3769 58.0641 50.497 57.9514 50.6392 57.8731C50.779 57.7971 50.9384 57.7531 51.1002 57.7531C51.2621 57.7506 51.4215 57.7873 51.5637 57.8633C51.7084 57.9367 51.831 58.0445 51.9217 58.1792C54.3959 61.7449 58.0521 64.3286 62.2428 65.4723C61.8676 59.0853 56.9412 56.0314 52.3754 55.3041C51.5809 55.1743 50.7766 55.1081 49.9723 55.1057Z" fill="black"/>
<path d="M49.4967 78.8071C48.202 78.8095 46.9146 78.5793 45.7008 78.1287C45.5806 78.0846 45.4703 78.0161 45.3747 77.9303C45.2815 77.8422 45.2055 77.7369 45.1515 77.6193C45.0976 77.5018 45.0681 77.3769 45.0632 77.2471C45.0583 77.1197 45.0779 76.9899 45.1245 76.8699C45.1687 76.7499 45.2373 76.6397 45.3256 76.5442C45.4114 76.4511 45.5169 76.3752 45.6346 76.3213C45.7523 76.2675 45.8774 76.2381 46.0073 76.2332C46.1373 76.2283 46.2648 76.2479 46.3849 76.292C48.5649 77.0977 50.9704 77.0267 53.0989 76.0985C53.3368 76.003 53.6016 76.003 53.837 76.0985C54.0749 76.194 54.2637 76.3801 54.3667 76.6128C54.4696 76.8454 54.477 77.1099 54.3887 77.3499C54.298 77.5875 54.119 77.7834 53.8885 77.8912C52.5055 78.4985 51.0097 78.8095 49.4967 78.8071Z" fill="black"/>
<path d="M50.5214 20.7534C50.2615 20.7534 50.0113 20.6506 49.8274 20.4669C49.6435 20.2832 49.5405 20.0359 49.5405 19.7738C49.5405 18.6693 49.5969 17.1044 49.6533 15.2922C49.8029 10.5239 50.0064 3.99 49.5552 1.15161C49.5332 1.02426 49.5356 0.89201 49.565 0.764662C49.592 0.637314 49.646 0.517312 49.722 0.412005C49.798 0.306698 49.8936 0.216084 50.004 0.147512C50.1143 0.0789397 50.2394 0.0324079 50.3669 0.0128158C50.4969 -0.0092252 50.6293 -0.00187878 50.7543 0.0275093C50.8819 0.0593463 51.002 0.115675 51.105 0.194044C51.2104 0.269963 51.2987 0.367922 51.3649 0.480577C51.4311 0.593231 51.4753 0.718131 51.4924 0.84548C51.9829 3.86755 51.7744 10.235 51.615 15.3534C51.5586 17.1534 51.5096 18.7061 51.5022 19.7836C51.5022 20.0432 51.3968 20.2906 51.2129 20.4718C51.029 20.653 50.7813 20.7534 50.5214 20.7534Z" fill="black"/>
<path d="M50.3328 22.3819C49.45 22.3819 48.7929 21.7868 48.4692 21.4929C46.6546 19.8497 45.0092 18.0325 43.5502 16.0659C43.4742 15.9631 43.4178 15.8455 43.3883 15.7206C43.3565 15.5957 43.3491 15.4659 43.3687 15.3386C43.3884 15.2112 43.4325 15.0888 43.4987 14.9786C43.5649 14.8684 43.6507 14.7729 43.7562 14.697C43.8592 14.621 43.9769 14.5647 44.1019 14.5329C44.227 14.501 44.3569 14.4961 44.4845 14.5157C44.612 14.5329 44.7346 14.5769 44.8449 14.6431C44.9553 14.7092 45.0509 14.7974 45.1269 14.9002C46.5075 16.7639 48.067 18.4856 49.786 20.0431C50.1636 20.386 50.2936 20.4252 50.3328 20.4252C50.372 20.4252 50.4996 20.3517 50.7963 20.0701C52.8512 18.1207 54.7246 15.99 56.3921 13.7027C56.5465 13.4945 56.777 13.3524 57.0321 13.3133C57.2895 13.2716 57.5519 13.3353 57.7628 13.4871C57.9737 13.6414 58.1135 13.8716 58.1551 14.1288C58.1944 14.3835 58.1331 14.6455 57.9786 14.8561C56.2425 17.2439 54.2906 19.4676 52.1499 21.5003C51.8409 21.7942 51.2671 22.3378 50.4603 22.3917L50.3328 22.3819Z" fill="black"/>
<path d="M7.93032 87.773C7.71944 87.773 7.51591 87.7044 7.34671 87.5795C7.17752 87.4546 7.05491 87.2783 6.9936 87.075C4.93871 80.2398 4.78668 68.8642 8.10933 61.6592C8.16328 61.5441 8.23929 61.4388 8.33493 61.3507C8.43056 61.2625 8.5409 61.1939 8.66106 61.1498C8.78121 61.1058 8.91119 61.0862 9.0387 61.0911C9.16621 61.096 9.29371 61.1253 9.41141 61.1792C9.52912 61.2331 9.63456 61.309 9.72284 61.4021C9.81112 61.4976 9.87733 61.6078 9.92392 61.7278C9.96805 61.8503 9.99012 61.9776 9.98522 62.1074C9.98032 62.2348 9.95089 62.3621 9.89695 62.4772C6.77537 69.2609 6.9274 80.0243 8.87685 86.5117C8.91363 86.6366 8.92835 86.7664 8.91364 86.8938C8.90137 87.0236 8.86214 87.1485 8.80329 87.2611C8.74198 87.3762 8.65861 87.4766 8.55807 87.5575C8.45753 87.6383 8.34228 87.6995 8.21968 87.7362C8.12649 87.7632 8.03086 87.7754 7.93523 87.773H7.93032Z" fill="black"/>
<path d="M13.8789 51.7945C13.7244 51.7945 13.5724 51.7578 13.4326 51.6892C13.2953 51.6182 13.1752 51.5178 13.0844 51.3929C12.9937 51.268 12.9324 51.1235 12.9079 50.9692C12.8833 50.8174 12.8956 50.6606 12.9422 50.5137C13.4768 48.8655 16.0049 45.743 17.7729 44.5479C17.9887 44.4034 18.2535 44.3495 18.5086 44.3985C18.7636 44.4475 18.9892 44.5969 19.1338 44.8124C19.281 45.0279 19.3325 45.2924 19.2834 45.5471C19.2344 45.8018 19.0848 46.0271 18.869 46.1716C17.486 47.1071 15.208 49.8794 14.8083 51.1161C14.7445 51.3145 14.6195 51.4859 14.4527 51.6084C14.2835 51.7308 14.0824 51.7945 13.874 51.7945H13.8789Z" fill="black"/>
<path d="M67.1958 37.2668C67.0658 37.2668 66.9383 37.2423 66.8181 37.1933C59.6775 34.2276 52.0783 33.2504 45.4256 34.4382C45.2981 34.4676 45.1633 34.4676 45.0358 34.4431C44.9058 34.4186 44.7832 34.3672 44.6728 34.2937C44.565 34.2202 44.4718 34.1272 44.3982 34.017C44.3271 33.9068 44.278 33.7843 44.256 33.6545C44.2315 33.5247 44.2339 33.3925 44.2633 33.2627C44.2928 33.1353 44.3467 33.0153 44.4252 32.9076C44.5012 32.8023 44.5993 32.7117 44.7121 32.6431C44.8249 32.5745 44.9499 32.5304 45.0799 32.5108C52.1004 31.2545 60.087 32.2659 67.5709 35.3835C67.7794 35.4717 67.9535 35.6284 68.0589 35.8268C68.1644 36.0276 68.1987 36.2578 68.1545 36.4782C68.1104 36.7011 67.9902 36.8995 67.8161 37.044C67.642 37.1884 67.4214 37.2668 67.1958 37.2668Z" fill="black"/>
<path d="M49.5207 93.8835H49.3907C49.2632 93.8664 49.1406 93.8248 49.0278 93.7586C48.9175 93.695 48.8194 93.6092 48.7409 93.5064C48.6624 93.4035 48.6036 93.286 48.5717 93.1635C48.5374 93.0386 48.53 92.9088 48.5472 92.7815C48.9518 89.7472 48.8145 86.6688 48.1352 83.6859C48.1034 83.5585 48.0984 83.4263 48.1181 83.2989C48.1377 83.1691 48.1843 83.0467 48.2529 82.934C48.3216 82.8238 48.4099 82.7283 48.5178 82.6524C48.6232 82.5765 48.7434 82.5226 48.8709 82.4932C48.9984 82.4638 49.1283 82.4614 49.2583 82.4834C49.3858 82.5055 49.5084 82.5544 49.6188 82.6255C49.7291 82.6965 49.8223 82.7871 49.8959 82.8948C49.9694 83.0026 50.0209 83.1226 50.0479 83.2524C50.7786 86.463 50.9307 89.7814 50.4917 93.0484C50.4574 93.2786 50.3397 93.4917 50.1631 93.646C49.9841 93.7978 49.7561 93.8835 49.5207 93.8835Z" fill="black"/>
</svg>
