<svg width="88" height="204" viewBox="0 0 88 204" fill="none" xmlns="http://www.w3.org/2000/svg">
<path d="M43.0467 -94.8202C46.2659 -86.0722 45.5894 -76.1112 40.9705 -67.9698C38.6144 -63.7941 34.9519 -60.4582 32.969 -56.0492C31.1494 -52.0135 31.3361 -47.6512 34.2054 -44.1753C36.3982 -41.4926 39.6175 -39.883 42.4868 -38.0634C45.1462 -36.3605 48.0388 -34.1677 47.7589 -30.6218C47.3857 -25.9096 42.93 -22.4571 39.9207 -19.2845C36.9114 -16.1119 33.5522 -11.7495 33.8788 -6.92068C34.1587 -2.81497 36.7481 0.287643 39.4775 3.13364C41.7403 5.46643 44.6096 8.05582 44.5163 11.5783C44.4463 14.8209 42.1369 17.7602 40.3873 20.3263C38.4511 23.149 36.2583 26.1816 35.6984 29.6341C35.0919 33.3666 36.4216 36.7025 38.9176 39.4318C41.1338 41.8813 43.9798 43.6308 46.3592 45.8703C48.2021 47.5966 49.6951 49.6495 48.4821 52.0989C47.199 54.6883 44.0498 56.1813 41.8103 57.8375C39.0809 59.8438 36.6082 62.3165 36.3749 65.8857C36.0483 70.7845 40.1773 74.237 42.6734 77.9462C47.8056 85.6444 50.0217 95.3255 48.5987 104.47C48.2488 106.733 47.6656 108.972 46.9191 111.142C45.986 113.871 50.3016 115.038 51.2348 112.331C54.314 103.35 54.1507 93.2959 50.8848 84.3847C49.2052 79.8124 46.7558 75.7534 43.7232 71.9509C42.4635 70.3879 40.8072 68.4517 40.8305 66.3289C40.8305 65.0925 41.4604 64.1127 42.3235 63.2263C44.5863 60.9168 47.6189 59.5172 49.9984 57.3243C52.5178 54.9915 54.0108 51.6557 53.1476 48.2265C51.4914 41.6246 43.3733 39.8984 40.5739 34.1131C39.2209 31.3137 40.5273 28.4211 42.0202 25.9483C43.8865 22.869 46.2659 20.0697 47.7356 16.7571C49.3219 13.1646 49.4618 9.36218 47.5256 5.863C45.6827 2.55045 42.5568 0.287636 40.2707 -2.675C39.2209 -4.02802 38.3811 -5.59099 38.3578 -7.34058C38.3111 -9.44009 39.3142 -11.353 40.5039 -13.0326C43.3266 -17.0683 47.479 -19.891 50.0684 -24.1133C52.4478 -28.0091 53.241 -32.9779 50.4649 -36.897C48.4121 -39.813 45.2861 -41.5859 42.3002 -43.4288C39.7341 -45.0151 36.6082 -46.928 36.2349 -50.2172C35.745 -54.5562 39.9441 -58.6853 42.3235 -61.8345C48.2021 -69.6494 50.5816 -79.6104 49.1352 -89.2681C48.7853 -91.5543 48.2021 -93.7937 47.409 -95.9632C46.4292 -98.6459 42.0902 -97.4795 43.0933 -94.7735L43.0467 -94.8202Z" fill="white"/>
<path d="M46.8724 27.2778C46.0559 28.8408 45.5894 30.6137 45.6827 32.3866C45.706 32.9698 45.916 33.553 46.3359 33.9729C46.7324 34.3695 47.3623 34.6494 47.9222 34.6261C48.482 34.6028 49.1119 34.4161 49.5085 33.9729C49.905 33.5297 50.185 32.9931 50.1616 32.3866C50.1616 31.92 50.1616 31.4302 50.2316 30.9636L50.1616 31.5468C50.255 30.8936 50.4416 30.2404 50.6749 29.6339L50.4416 30.1705C50.5349 29.9605 50.6282 29.7272 50.7448 29.5173C51.0248 28.9807 51.1414 28.3742 50.9781 27.791C50.8382 27.2778 50.4416 26.7179 49.9517 26.4613C49.4385 26.1814 48.8086 26.0414 48.2254 26.228C47.6889 26.3913 47.1523 26.7413 46.8957 27.2545L46.8724 27.2778Z" fill="white"/>
<path d="M46.2425 68.9883L49.8584 74.4003C50.185 74.8902 50.6282 75.2635 51.1881 75.4268C51.7246 75.5667 52.4478 75.4967 52.9143 75.1935C53.3809 74.8902 53.8008 74.4237 53.9407 73.8638C54.0807 73.3039 54.0574 72.6507 53.7075 72.1375L50.0916 66.7255C49.7651 66.2356 49.3218 65.8623 48.762 65.699C48.2254 65.5591 47.5022 65.6291 47.0357 65.9323C46.5691 66.2356 46.1492 66.7021 46.0093 67.262C45.8693 67.8219 45.8926 68.475 46.2425 68.9883Z" fill="white"/>
<path d="M55.4572 111.842C55.3872 115.341 52.3079 118.093 48.5988 118C44.8897 117.907 41.9504 115.014 42.0437 111.538C42.1136 108.039 45.1929 105.286 48.9021 105.38C52.6112 105.473 55.5505 108.366 55.4572 111.842Z" fill="white"/>
<path d="M76.4922 154.287C73.2729 145.539 73.9494 135.578 78.5683 127.436C80.9245 123.261 84.5869 119.925 86.5698 115.516C88.3894 111.48 88.2028 107.118 85.3334 103.642C83.1406 100.959 79.9214 99.3495 77.052 97.5299C74.3927 95.827 71.5 93.6342 71.7799 90.0883C72.1532 85.3761 76.6088 81.9236 79.6181 78.751C82.6274 75.5784 85.9866 71.2161 85.66 66.3872C85.3801 62.2815 82.7907 59.1789 80.0613 56.3329C77.7985 54.0001 74.9292 51.4107 75.0225 47.8882C75.0925 44.6456 77.4019 41.7063 79.1515 39.1402C81.0878 36.3176 83.2806 33.2849 83.8405 29.8324C84.447 26.0999 83.1173 22.7641 80.6212 20.0347C78.4051 17.5853 75.5591 15.8357 73.1796 13.5962C71.3367 11.8699 69.8437 9.81708 71.0568 7.36765C72.3398 4.77825 75.4891 3.28527 77.7285 1.62899C80.4579 -0.377209 82.9307 -2.84997 83.1639 -6.41914C83.4905 -11.318 79.3615 -14.7705 76.8654 -18.4797C71.7333 -26.1779 69.5171 -35.8589 70.9401 -45.0035C71.29 -47.2663 71.8732 -49.5057 72.6197 -51.6752C73.5529 -54.4046 69.2372 -55.571 68.3041 -52.865C65.2248 -43.8837 65.3881 -33.8294 68.654 -24.9181C70.3336 -20.3459 72.783 -16.2868 75.8157 -12.4844C77.0754 -10.9214 78.7316 -8.9852 78.7083 -6.86237C78.7083 -5.62599 78.0785 -4.64622 77.2153 -3.75976C74.9525 -1.45029 71.9199 -0.050621 69.5405 2.1422C67.021 4.47499 65.5281 7.81087 66.3912 11.2401C68.0475 17.8419 76.1656 19.5681 78.9649 25.3534C80.3179 28.1528 79.0116 31.0454 77.5186 33.5182C75.6524 36.5975 73.2729 39.3968 71.8033 42.7094C70.217 46.3019 70.077 50.1043 72.0132 53.6035C73.8561 56.9161 76.9821 59.1789 79.2682 62.1415C80.3179 63.4945 81.1577 65.0575 81.1811 66.8071C81.2277 68.9066 80.2246 70.8195 79.0349 72.4991C76.2122 76.5348 72.0599 79.3575 69.4705 83.5798C67.091 87.4756 66.2979 92.4445 69.0739 96.3635C71.1268 99.2795 74.2527 101.052 77.2387 102.895C79.8047 104.482 82.9307 106.395 83.3039 109.684C83.7938 114.023 79.5948 118.152 77.2153 121.301C71.3367 129.116 68.9573 139.077 70.4036 148.735C70.7535 151.021 71.3367 153.26 72.1299 155.43C73.1096 158.112 77.4486 156.946 76.4455 154.24L76.4922 154.287Z" fill="white"/>
<path d="M60.0695 142.856C60.0695 142.856 60.0228 142.973 59.9995 143.043C59.8595 143.556 60.3961 144.069 60.6527 144.466C61.0959 145.119 61.5391 145.749 61.959 146.402C62.8455 147.685 63.7086 148.991 64.5951 150.274C66.3447 152.864 68.0943 155.43 69.8438 158.019C70.7303 159.302 71.5934 160.608 72.4799 161.891C73.2731 163.058 73.9729 164.318 75.0226 165.251C75.1393 165.367 75.2792 165.461 75.4192 165.484C76.3757 165.647 77.0755 162.265 77.2621 161.635L78.8717 156.643C80.7846 150.694 82.6975 144.769 84.6104 138.82C84.727 138.494 84.8203 138.097 84.6571 137.794C84.4004 137.257 83.6306 137.304 83.0474 137.421C76.9589 138.727 70.8936 140.033 64.805 141.316C64.0119 141.48 63.2187 141.666 62.4256 141.829C61.9124 141.946 60.746 141.946 60.3961 142.319C60.2561 142.459 60.1161 142.646 60.0228 142.833L60.0695 142.856Z" fill="white"/>
<path d="M72.6432 32.1885C73.4597 30.6255 73.9263 28.8526 73.833 27.0797C73.8096 26.4965 73.5997 25.9133 73.1798 25.4934C72.7832 25.0968 72.1534 24.8169 71.5935 24.8402C71.0336 24.8636 70.4038 25.0502 70.0072 25.4934C69.6106 25.9366 69.3307 26.4732 69.354 27.0797C69.354 27.5463 69.354 28.0361 69.284 28.5027L69.354 27.9195C69.2607 28.5727 69.0741 29.2259 68.8408 29.8324L69.0741 29.2959C68.9808 29.5058 68.8874 29.7391 68.7708 29.949C68.4909 30.4856 68.3742 31.0921 68.5375 31.6753C68.6775 32.1885 69.0741 32.7484 69.564 33.005C70.0772 33.2849 70.707 33.4249 71.2902 33.2383C71.8268 33.075 72.3633 32.725 72.6199 32.2118L72.6432 32.1885Z" fill="white"/>
<path d="M80.5749 90.4616C80.6915 89.7151 80.8781 88.9686 81.1814 88.2688L80.9481 88.8053C81.2514 88.0822 81.648 87.4057 82.1379 86.7758L81.7879 87.219C81.9279 87.0324 82.0912 86.8458 82.2545 86.6825C82.6511 86.2393 82.9077 85.7027 82.9077 85.0962C82.9077 84.5363 82.6744 83.8832 82.2545 83.5099C81.8346 83.1367 81.2747 82.8334 80.6682 82.8567C80.0617 82.8801 79.4785 83.0667 79.0819 83.5099C77.6356 85.0962 76.5858 87.1024 76.2592 89.2486C76.1659 89.5518 76.1426 89.8318 76.2126 90.135C76.2126 90.4383 76.3059 90.7182 76.4692 90.9748C76.7491 91.4414 77.2623 91.8846 77.7989 92.0013C78.3821 92.1412 79.0119 92.0946 79.5251 91.768C79.9684 91.4647 80.4816 90.9982 80.5516 90.4383L80.5749 90.4616Z" fill="white"/>
<path d="M16.5156 192.763C13.2964 184.015 13.9729 174.054 18.5918 165.912C20.9479 161.737 24.6104 158.401 26.5932 153.992C28.4128 149.956 28.2262 145.594 25.3569 142.118C23.1641 139.435 19.9448 137.826 17.0755 136.006C14.4161 134.303 11.5234 132.11 11.8034 128.564C12.1766 123.852 16.6322 120.4 19.6415 117.227C22.6508 114.054 26.0101 109.692 25.6835 104.863C25.4035 100.758 22.8141 97.655 20.0848 94.809C17.822 92.4762 14.9526 89.8868 15.046 86.3643C15.1159 83.1217 17.4254 80.1824 19.175 77.6163C21.1112 74.7936 23.304 71.761 23.8639 68.3085C24.4704 64.576 23.1407 61.2401 20.6446 58.5108C18.4285 56.0613 15.5825 54.3117 13.203 52.0723C11.3601 50.346 9.86716 48.2932 11.0802 45.8437C12.3632 43.2543 15.5125 41.7613 17.752 40.1051C20.4813 38.0989 22.9541 35.6261 23.1874 32.0569C23.514 27.1581 19.3849 23.7056 16.8888 19.9964C11.7567 12.2982 9.54057 2.61715 10.9636 -6.52739C11.3135 -8.79019 11.8967 -11.0297 12.6432 -13.1992C13.5763 -15.9285 9.26063 -17.0949 8.32752 -14.3889C5.24824 -5.40765 5.41153 4.64667 8.67743 13.5579C10.357 18.1302 12.8065 22.1892 15.8391 25.9917C17.0988 27.5547 18.7551 29.4909 18.7318 31.6137C18.7318 32.8501 18.1019 33.8299 17.2388 34.7163C14.976 37.0258 11.9433 38.4255 9.56389 40.6183C7.04448 42.9511 5.5515 46.2869 6.41463 49.7161C8.07091 56.3179 16.189 58.0442 18.9884 63.8295C20.3414 66.6289 19.035 69.5215 17.542 71.9943C15.6758 75.0736 13.2964 77.8729 11.8267 81.1855C10.2404 84.778 10.1004 88.5804 12.0367 92.0796C13.8796 95.3922 17.0055 97.655 19.2916 100.618C20.3414 101.971 21.1812 103.534 21.2045 105.283C21.2512 107.383 20.2481 109.296 19.0583 110.975C16.2357 115.011 12.0833 117.834 9.49391 122.056C7.11447 125.952 6.32132 130.921 9.09734 134.84C11.1502 137.756 14.2761 139.529 17.2621 141.371C19.8282 142.958 22.9541 144.871 23.3273 148.16C23.8172 152.499 19.6182 156.628 17.2388 159.777C11.3601 167.592 8.9807 177.553 10.427 187.211C10.7769 189.497 11.3601 191.736 12.1533 193.906C13.1331 196.589 17.472 195.422 16.4689 192.716L16.5156 192.763Z" fill="white"/>
<path d="M0.0928998 181.332C0.0928998 181.332 0.0462424 181.449 0.0229146 181.519C-0.117053 182.032 0.41949 182.545 0.676097 182.942C1.11933 183.595 1.56256 184.225 1.98246 184.878C2.86892 186.161 3.73205 187.467 4.61851 188.75C6.3681 191.34 8.11769 193.906 9.86729 196.495C10.7537 197.778 11.6169 199.085 12.5033 200.368C13.2965 201.534 13.9963 202.794 15.0461 203.727C15.1627 203.843 15.3027 203.937 15.4426 203.96C16.3991 204.123 17.0989 200.741 17.2856 200.111L18.8952 195.119C20.8081 189.17 22.7209 183.245 24.6338 177.296C24.7505 176.97 24.8438 176.573 24.6805 176.27C24.4239 175.733 23.6541 175.78 23.0709 175.897C16.9823 177.203 10.917 178.509 4.82846 179.792C4.03531 179.956 3.24217 180.142 2.44902 180.306C1.9358 180.422 0.769407 180.422 0.419489 180.795C0.279521 180.935 0.139555 181.122 0.046243 181.309L0.0928998 181.332Z" fill="white"/>
<path d="M12.6667 70.6646C13.4832 69.1016 13.9497 67.3287 13.8564 65.5558C13.8331 64.9726 13.6231 64.3894 13.2032 63.9695C12.8066 63.5729 12.1768 63.293 11.6169 63.3163C11.0571 63.3396 10.4272 63.5262 10.0306 63.9695C9.63405 64.4127 9.35411 64.9492 9.37744 65.5558C9.37744 66.0223 9.37744 66.5122 9.30746 66.9788L9.37744 66.3956C9.28413 67.0488 9.09751 67.7019 8.86423 68.3085L9.09751 67.7719C9.0042 67.9819 8.91088 68.2152 8.79424 68.4251C8.51431 68.9616 8.39767 69.5682 8.56096 70.1514C8.70093 70.6646 9.09751 71.2245 9.58739 71.4811C10.1006 71.761 10.7305 71.901 11.3137 71.7143C11.8502 71.551 12.3867 71.2011 12.6433 70.6879L12.6667 70.6646Z" fill="white"/>
<path d="M20.5983 128.938C20.715 128.191 20.9016 127.445 21.2048 126.745L20.9716 127.281C21.2748 126.558 21.6714 125.882 22.1613 125.252L21.8114 125.695C21.9513 125.508 22.1146 125.322 22.2779 125.159C22.6745 124.715 22.9311 124.179 22.9311 123.572C22.9311 123.012 22.6978 122.359 22.2779 121.986C21.858 121.613 21.2982 121.309 20.6916 121.333C20.0851 121.356 19.5019 121.543 19.1053 121.986C17.659 123.572 16.6093 125.578 16.2827 127.725C16.1893 128.028 16.166 128.308 16.236 128.611C16.236 128.914 16.3293 129.194 16.4926 129.451C16.7725 129.917 17.2858 130.361 17.8223 130.477C18.4055 130.617 19.0353 130.571 19.5486 130.244C19.9918 129.941 20.505 129.474 20.575 128.914L20.5983 128.938Z" fill="white"/>
<path d="M13.3198 28.9774C12.1067 27.1811 10.917 25.3615 9.70395 23.5653C9.37736 23.0754 8.93412 22.7022 8.37425 22.5389C7.83771 22.3989 7.11455 22.4689 6.64799 22.7721C6.18143 23.0754 5.76153 23.542 5.62157 24.1018C5.4816 24.6617 5.50492 25.3149 5.85484 25.8281C7.06789 27.6243 8.25762 29.4439 9.47067 31.2402C9.79726 31.7301 10.2405 32.1033 10.8004 32.2666C11.3369 32.4066 12.0601 32.3366 12.5266 32.0333C12.9932 31.7301 13.4131 31.2635 13.553 30.7036C13.693 30.1438 13.6697 29.4906 13.3198 28.9774Z" fill="white"/>
</svg>
