<svg width="89" height="108" viewBox="0 0 89 108" fill="none" xmlns="http://www.w3.org/2000/svg">
<path d="M40.0999 73.2304C66.7154 67.2941 76.166 93.8951 75.9649 94.576C68.736 102.746 54.4498 106.265 43.6678 106.192C34.5213 106.032 19.3916 99.8242 14.1881 94.6813C13.1313 93.6233 24.9849 76.5978 40.0999 73.2304Z" fill="#FBDB86"/>
<path d="M44.0084 107.169H43.6602C34.6265 107.012 19.1388 100.946 13.4989 95.3646C13.1384 95.0071 13.0526 94.4903 13.2537 93.8291C13.8226 91.8699 17.1085 87.2413 21.6204 82.9212C25.7032 79.0028 32.1867 73.9921 39.8987 72.2705C54.2388 69.0868 63.5937 75.175 68.9173 80.8592C71.3792 83.5114 73.4586 86.4919 75.0967 89.7172C75.3125 90.1433 77.1982 93.8952 76.9162 94.8601C76.8769 94.9973 76.8058 95.1246 76.7102 95.2324C69.3881 103.495 55.0774 107.169 44.0084 107.169ZM15.159 94.243C20.2447 98.9793 34.6977 105.055 43.6848 105.21H44.0207C54.4742 105.21 67.8947 101.845 74.9177 94.2822C74.3095 92.2911 70.5823 83.4257 62.5221 77.9106C56.1759 73.5685 48.7067 72.3146 40.3253 74.1832C26.7209 77.2175 16.0393 91.598 15.159 94.243Z" fill="black"/>
<path d="M46.5417 107.891C42.4712 107.874 38.4202 107.362 34.4723 106.373C26.4464 104.399 19.6638 100.951 14.3108 96.1212C9.81354 92.0264 6.28245 86.9888 3.97253 81.3684C-0.686536 70.2474 -0.0465204 59.5526 0.132486 57.5224C1.45664 42.3655 10.0784 33.3679 17.0792 28.4895C25.4042 22.6878 34.8573 20.2045 40.4212 19.8396C47.1915 19.3987 53.5892 20.2657 59.44 22.4208C68.7311 25.8494 75.9968 31.3425 81.0335 38.763C85.7833 45.7598 88.3041 54.3191 88.3286 63.5151C88.3532 73.392 83.9148 88.2501 75.6609 96.2975C71.6565 100.201 61.8234 107.891 46.5417 107.891ZM34.9406 104.462C56.2301 109.696 69.5502 99.5106 74.2901 94.8869C81.8918 87.4835 86.3915 73.1201 86.3669 63.5151C86.3179 45.0055 76.2567 30.6985 58.7607 24.2527C53.1698 22.1931 47.0444 21.3628 40.5487 21.789C31.3311 22.3914 4.48012 30.2797 2.08684 57.6865C1.91519 59.6457 1.29234 69.907 5.77976 80.6043C10.9611 92.9595 20.7721 100.987 34.9406 104.47V104.462Z" fill="black"/>
<path d="M47.2676 94.0785C46.6398 94.081 46.0145 94.0394 45.3917 93.9561C42.9592 93.6304 40.5389 92.6287 38.1996 90.9805C33.6852 87.7968 30.9437 83.4303 30.6764 79C30.6617 78.7404 30.75 78.4857 30.9216 78.2923C31.0957 78.0963 31.3385 77.9788 31.5984 77.9616C31.8583 77.9469 32.1158 78.0351 32.3095 78.209C32.5057 78.3804 32.6234 78.6229 32.6381 78.8825C32.8686 82.7152 35.3085 86.5405 39.3349 89.3789C41.4413 90.8654 43.5036 91.7275 45.6565 92.014C48.5868 92.3667 51.5515 91.7765 54.1213 90.3316C56.1983 89.1316 57.9123 87.3879 59.0746 85.2891C60.3694 83.1143 61.1099 80.6555 61.2301 78.1257C61.235 77.9984 61.2669 77.871 61.3208 77.7559C61.3748 77.6384 61.4508 77.5331 61.5439 77.4449C61.6396 77.3567 61.7499 77.2906 61.8701 77.2441C61.9927 77.2 62.1202 77.1804 62.2502 77.1853C62.3777 77.1902 62.5052 77.2196 62.6229 77.2735C62.7381 77.3273 62.8436 77.4057 62.9319 77.4988C63.0201 77.5943 63.0864 77.7045 63.1329 77.8245C63.1771 77.9469 63.1967 78.0743 63.1918 78.2016C63.0594 81.0498 62.2306 83.8197 60.774 86.2687C59.44 88.6687 57.4783 90.6597 55.0973 92.0312C52.704 93.3708 50.0091 94.0736 47.2676 94.0785Z" fill="white"/>
<path d="M46.353 75.1285H46.299C46.1715 75.1236 46.044 75.0893 45.9288 75.0354C45.8111 74.9791 45.7081 74.9007 45.6222 74.8052C45.5364 74.7097 45.4702 74.5971 45.4261 74.4771C45.3844 74.3546 45.3648 74.2273 45.3721 74.0975L45.8282 65.6656C45.8429 65.406 45.9582 65.1635 46.1519 64.9896C46.3456 64.8158 46.6031 64.7251 46.863 64.7398C47.1229 64.7545 47.3657 64.8696 47.5398 65.0631C47.7139 65.2566 47.8046 65.5113 47.7899 65.7709L47.3338 74.2028C47.3191 74.455 47.2112 74.6901 47.0273 74.8616C46.8459 75.033 46.6031 75.131 46.353 75.1285Z" fill="black"/>
<path d="M67.3311 49.7618C65.7936 47.8956 63.2532 48.5667 62.1203 49.0271C62.0688 49.0516 62.01 49.0614 61.9536 49.0565C61.8972 49.0516 61.8408 49.032 61.7917 49.0026C61.7451 48.9707 61.7035 48.9291 61.6765 48.8801C61.6471 48.8312 61.6324 48.7748 61.6299 48.7161C61.5171 45.623 60.3229 42.5642 58.1356 40.3894C55.7006 37.9551 52.2848 36.7404 48.8861 36.1698C44.9799 35.5135 40.5096 35.751 37.1158 38.0066C35.6862 38.9568 34.9481 40.0221 34.1733 41.4939C33.2292 43.2989 32.2655 44.783 31.986 46.8573C31.8634 47.7879 31.8339 48.7258 31.8953 49.6614C31.9002 49.725 31.8879 49.7863 31.8609 49.8401C31.8315 49.8965 31.7923 49.943 31.7408 49.9773C31.6893 50.014 31.6279 50.0336 31.5666 50.0385C31.5053 50.0434 31.444 50.0312 31.3876 50.0042C30.3381 49.4899 28.0258 48.6548 26.3142 50.1463C25.1886 51.1259 25.5001 52.8206 25.6766 53.423C26.0469 54.6867 27.4078 55.4533 28.7246 55.5488C30.0414 55.6443 31.3288 55.2059 32.5769 54.7749C32.6775 54.7406 32.7878 54.7479 32.8834 54.7945C32.9766 54.841 33.0502 54.9218 33.087 55.0198C33.8741 57.1259 34.9825 59.1243 36.5666 60.7113C39.0383 63.1848 42.5792 64.495 46.0784 64.446C49.5776 64.397 53.0499 63.4884 55.7742 61.2941C57.6378 59.7929 59.4254 57.2337 60.4994 55.0663C60.5534 54.9586 60.6392 54.868 60.7471 54.8116C60.8526 54.7553 60.9752 54.7333 61.0953 54.7504C63.187 55.0712 65.264 55.4998 67.0687 53.6606C67.5861 53.1585 67.9 52.4826 67.9491 51.7626C67.9956 51.0426 67.7774 50.3299 67.3311 49.7618Z" fill="#DCB7BC"/>
<path d="M61.2156 47.5624C61.348 47.5624 61.4731 47.5135 61.5687 47.4204C61.6619 47.3298 61.7183 47.2049 61.7208 47.0726C61.8875 43.5069 59.4182 39.5762 56.4487 37.5534C51.9146 34.4652 45.7549 33.6521 40.6274 35.5942C38.2415 36.5027 35.2867 38.6824 33.889 40.8081C32.2411 43.311 31.9591 44.9249 31.682 46.6122C31.5079 47.6408 32.0155 47.7731 32.6629 47.7388C40.7819 47.298 56.5762 47.5575 61.2156 47.5624Z" fill="#FF5400"/>
<path d="M45.9019 59.7317C45.0927 59.7292 44.2834 59.6778 43.4791 59.5725C43.2217 59.5358 42.9887 59.4011 42.8293 59.1954C42.6724 58.9896 42.6037 58.7276 42.638 58.4705C42.6724 58.2133 42.8073 57.9807 43.0132 57.8215C43.2217 57.6647 43.4816 57.5962 43.7391 57.6304C45.8356 57.9047 47.9641 57.7798 50.0117 57.2606C50.2642 57.1945 50.5315 57.2313 50.7546 57.3635C50.9802 57.4957 51.1421 57.7113 51.2083 57.9635C51.2721 58.2158 51.2353 58.4827 51.1028 58.7056C50.9704 58.9309 50.7546 59.0925 50.5021 59.1586C48.9989 59.5382 47.4541 59.7317 45.9019 59.7317Z" fill="black"/>
<path d="M34.8549 11.2705C34.7004 11.2705 34.5459 11.2337 34.4086 11.1627C34.2688 11.0917 34.1487 10.9888 34.0579 10.8639C30.6764 6.20591 25.6422 3.01486 19.9826 1.94464C19.7276 1.89566 19.4996 1.74872 19.3524 1.53566C19.2053 1.32015 19.1489 1.05565 19.198 0.800957C19.2446 0.546261 19.3917 0.318503 19.605 0.171563C19.8208 0.0246226 20.0856 -0.0317046 20.3407 0.0172755C26.4955 1.183 31.9736 4.65324 35.6494 9.72023C35.7548 9.86473 35.8161 10.0386 35.8308 10.2174C35.8431 10.3962 35.8088 10.5749 35.7254 10.7366C35.6445 10.8958 35.5194 11.0305 35.3649 11.126C35.2129 11.219 35.0363 11.268 34.8549 11.2705Z" fill="black"/>
<path d="M34.9846 11.8806C34.6512 11.8757 34.3176 11.8316 33.9915 11.7508L26.1447 9.99732C26.0147 9.97528 25.8921 9.92385 25.7818 9.85283C25.6714 9.77936 25.5758 9.68629 25.5047 9.57609C25.4311 9.46588 25.3821 9.34098 25.3575 9.21119C25.333 9.08139 25.3355 8.94914 25.3649 8.81935C25.3943 8.692 25.4483 8.56955 25.5267 8.46424C25.6027 8.35648 25.7008 8.26587 25.8136 8.1973C25.9264 8.12873 26.0515 8.08464 26.1839 8.06505C26.3139 8.04546 26.4463 8.05526 26.5738 8.08709L34.4206 9.83813C34.6511 9.9116 34.8915 9.93854 35.1318 9.9116C35.1661 9.73772 35.1784 9.5565 35.1686 9.37772L35.1465 3.18663C35.1465 2.92704 35.2495 2.67969 35.4334 2.49601C35.6173 2.31234 35.8674 2.20703 36.1273 2.20703C36.3873 2.20703 36.6374 2.31234 36.8213 2.49601C37.0052 2.67969 37.1082 2.92704 37.1082 3.18663L37.1303 9.37772C37.1303 9.83568 37.1302 10.683 36.5295 11.3002C36.3259 11.4986 36.0832 11.6504 35.8184 11.7508C35.5511 11.8488 35.2691 11.8953 34.9846 11.8806Z" fill="black"/>
<path d="M6.64773 63.2774C6.39761 63.2798 6.1573 63.1843 5.97584 63.0129C5.79193 62.8415 5.68158 62.6088 5.66687 62.359C5.36281 56.3761 6.64527 50.4177 9.38186 45.0837C12.1209 39.7522 16.2184 35.2363 21.2625 31.9913C21.3728 31.9228 21.493 31.8787 21.6205 31.8567C21.748 31.8346 21.878 31.8395 22.003 31.8664C22.1281 31.8958 22.2482 31.9497 22.3537 32.0232C22.4567 32.0991 22.5474 32.1922 22.6161 32.3024C22.6847 32.4101 22.7289 32.5326 22.7509 32.6599C22.773 32.7873 22.7681 32.9171 22.7411 33.042C22.7117 33.1669 22.6577 33.2844 22.5842 33.3897C22.5082 33.495 22.415 33.5832 22.3047 33.6518C12.8247 39.5906 6.92482 51.0764 7.62613 62.2317C7.63349 62.3615 7.61631 62.4888 7.57463 62.6113C7.53294 62.7337 7.46674 62.8464 7.38337 62.9419C7.29754 63.0374 7.1921 63.1182 7.07685 63.1745C6.9616 63.2309 6.83654 63.2627 6.70658 63.27L6.64773 63.2774Z" fill="black"/>
<path d="M11.7781 83.9472C11.6089 83.9472 11.4446 83.9055 11.2975 83.8223C11.1504 83.739 11.0278 83.6214 10.9395 83.4769C8.83557 80.0287 7.4354 76.201 6.81501 72.2115C6.77577 71.9544 6.83952 71.6923 6.99401 71.4842C7.14849 71.2736 7.37899 71.134 7.63647 71.0948C7.89394 71.0556 8.15633 71.1193 8.36722 71.2736C8.57565 71.4278 8.71541 71.6581 8.75464 71.9152C9.3358 75.645 10.6477 79.223 12.6143 82.4459C12.683 82.5561 12.7271 82.6786 12.7467 82.8059C12.7664 82.9333 12.7615 83.0631 12.732 83.188C12.7001 83.3129 12.6462 83.4304 12.5702 83.5333C12.4942 83.6386 12.3985 83.7267 12.2882 83.7929C12.1362 83.8908 11.9596 83.9447 11.7781 83.9472Z" fill="black"/>
</svg>
