<svg width="221" height="50" viewBox="0 0 221 50" fill="none" xmlns="http://www.w3.org/2000/svg">
<path d="M158.715 41.5448C155.799 49.5955 150.77 65.749 145.205 84H144.527C150.117 65.663 155.175 49.4153 158.104 41.324C159.427 37.6696 160.926 33.5281 160.42 29.4126C159.646 23.1071 154.442 18.2903 149.176 13.8988C136.061 2.95824 56.5249 -61.1508 -15 -118.72V-119.555C56.632 -61.8976 136.449 2.43713 149.592 13.4004C154.956 17.8763 160.261 22.7921 161.066 29.3331C161.59 33.6028 160.061 37.8222 158.715 41.5448Z" fill="url(#paint0_linear_231_1400)" fill-opacity="0.5"/>
<path d="M167.799 37.9894C164.694 46.5597 159.197 64.3106 153.209 84H152.53C158.543 64.2262 164.071 46.3778 167.188 37.7686C168.511 34.1142 170.01 29.9727 169.504 25.8572C168.73 19.5517 163.526 14.7365 158.26 10.3434C144.587 -1.06145 58.7172 -70.2584 -15 -129.586V-130.421C58.8097 -71.0182 144.975 -1.5842 158.676 9.84499C164.04 14.3209 169.345 19.2367 170.15 25.7777C170.674 30.049 169.145 34.2668 167.799 37.9894Z" fill="url(#paint1_linear_231_1400)" fill-opacity="0.5"/>
<path d="M176.883 34.434C173.593 43.5173 167.614 62.9128 161.212 84H160.534C166.96 62.8316 172.969 43.3371 176.272 34.2132C177.595 30.5604 179.094 26.419 178.59 22.3018C177.814 15.9963 172.61 11.1811 167.344 6.78802C153.105 -5.08925 60.5704 -79.6404 -15 -140.452V-141.287C60.6467 -80.4132 153.493 -5.612 167.76 6.28963C173.124 10.7655 178.429 15.6814 179.234 22.2223C179.758 26.4936 178.229 30.713 176.883 34.434Z" fill="url(#paint2_linear_231_1400)" fill-opacity="0.5"/>
<path d="M185.967 30.8802C182.492 40.4716 176.021 61.5621 169.218 84H168.54C175.365 61.4825 181.869 40.2914 185.356 30.6578C186.679 27.005 188.178 22.8635 187.674 18.7464C186.898 12.4409 181.694 7.62569 176.428 3.23421C161.613 -9.12523 62.039 -89.3309 -15 -151.318V-152.151C62.0958 -90.1199 161.999 -9.64799 176.844 2.73418C182.208 7.21007 187.513 12.1259 188.318 18.6669C188.842 22.9382 187.313 27.1576 185.967 30.8802Z" fill="url(#paint3_linear_231_1400)" fill-opacity="0.5"/>
<path d="M195.051 27.3248C191.395 37.4212 184.414 60.2601 177.225 84H176.545C183.758 60.1854 190.77 37.241 194.441 27.104C195.763 23.4496 197.262 19.3082 196.758 15.191C195.982 8.88551 190.778 4.07031 185.512 -0.321167C170.767 -12.6222 72.0528 -92.1379 -4.83203 -154H-3.79511C73.0005 -92.2077 171.219 -13.0897 185.928 -0.81958C191.292 3.65469 196.597 8.57057 197.402 15.1131C197.926 19.3828 196.398 23.6022 195.051 27.3248Z" fill="url(#paint4_linear_231_1400)" fill-opacity="0.5"/>
<path d="M204.135 23.7694C200.296 34.369 192.794 59.0132 185.233 84H184.555C192.138 58.9402 199.672 34.1888 203.525 23.5486C204.847 19.8942 206.347 15.7528 205.842 11.6373C205.066 5.33012 199.862 0.514923 194.596 -3.87656C180.132 -15.9438 84.8693 -92.6866 8.6709 -154H9.70782C85.8008 -92.7694 180.584 -16.4113 195.012 -4.37495C200.377 0.0993195 205.683 5.01678 206.486 11.5577C207.01 15.8274 205.482 20.0468 204.135 23.7694Z" fill="url(#paint5_linear_231_1400)" fill-opacity="0.5"/>
<path d="M213.219 20.214C209.198 31.3153 201.159 57.8265 193.24 84H192.561C200.5 57.7583 208.573 31.1384 212.609 19.9933C213.931 16.3388 215.43 12.1974 214.926 8.08188C214.15 1.77635 208.946 -3.04047 203.68 -7.43195C189.494 -19.2654 97.5896 -93.3116 22.1733 -154H23.2086C98.508 -93.4058 189.945 -19.7346 204.096 -7.93036C209.46 -3.45609 214.765 1.4614 215.57 8.00233C216.094 12.272 214.567 16.4914 213.219 20.214Z" fill="url(#paint6_linear_231_1400)" fill-opacity="0.5"/>
<path d="M222.303 16.6586C218.15 28.1284 209.705 56.0455 201.54 83.0438C201.444 83.362 201.347 83.6818 201.251 84H200.573C200.688 83.6185 200.803 83.237 200.918 82.8554C209.086 55.8491 217.534 27.9239 221.693 16.4379C223.015 12.7834 224.514 8.64198 224.01 4.52649C223.234 -1.77904 218.03 -6.59586 212.764 -10.9873C198.853 -22.5919 110.216 -94.0113 35.6729 -154H36.7098C111.125 -94.1152 199.307 -23.0594 213.181 -11.4857C218.544 -7.00983 223.851 -2.09399 224.654 4.44695C225.178 8.71666 223.651 12.9361 222.303 16.6586Z" fill="url(#paint7_linear_231_1400)" fill-opacity="0.5"/>
<path d="M231.387 13.1049C227.233 24.5747 218.79 52.4918 210.623 79.4884C210.168 80.9901 209.714 82.4951 209.258 84H208.581C209.055 82.4333 209.529 80.8651 210.003 79.3017C218.17 52.2953 226.618 24.3701 230.777 12.8825C232.099 9.22804 233.599 5.08661 233.094 0.971115C232.318 -5.33441 227.114 -10.1496 221.849 -14.5427C208.211 -25.9183 122.762 -94.7776 49.1758 -154H50.2127C123.659 -94.8896 208.664 -26.3875 222.266 -15.0411C227.63 -10.5652 232.935 -5.64938 233.738 0.891556C234.262 5.1629 232.735 9.38231 231.387 13.1049Z" fill="url(#paint8_linear_231_1400)" fill-opacity="0.5"/>
<path d="M240.471 9.5495C236.318 21.0193 227.874 48.9364 219.706 75.9346C218.893 78.6198 218.079 81.3132 217.266 84H216.589C217.422 81.2515 218.256 78.4948 219.086 75.7463C227.254 48.74 235.702 20.8147 239.861 9.32709C241.183 5.6743 242.683 1.53282 242.178 -2.58429C241.402 -8.88982 236.198 -13.705 230.932 -18.0965C217.568 -29.2464 135.227 -95.6088 62.6782 -154H63.7135C136.112 -95.729 218.02 -29.714 231.349 -18.5965C236.714 -14.1206 242.019 -9.20477 242.822 -2.66383C243.346 1.60751 241.819 5.8269 240.471 9.5495Z" fill="url(#paint9_linear_231_1400)" fill-opacity="0.5"/>
<defs>
<linearGradient id="paint0_linear_231_1400" x1="36.0749" y1="0.610894" x2="112.889" y2="12.2115" gradientUnits="userSpaceOnUse">
<stop stop-opacity="0"/>
<stop offset="1" stop-color="#BAB6B6"/>
</linearGradient>
<linearGradient id="paint1_linear_231_1400" x1="38.7085" y1="-3.84044" x2="119.489" y2="8.33819" gradientUnits="userSpaceOnUse">
<stop stop-opacity="0"/>
<stop offset="1" stop-color="#BAB6B6"/>
</linearGradient>
<linearGradient id="paint2_linear_231_1400" x1="41.3421" y1="-8.29179" x2="126.09" y2="4.46497" gradientUnits="userSpaceOnUse">
<stop stop-opacity="0"/>
<stop offset="1" stop-color="#BAB6B6"/>
</linearGradient>
<linearGradient id="paint3_linear_231_1400" x1="43.9757" y1="-12.7425" x2="132.69" y2="0.59251" gradientUnits="userSpaceOnUse">
<stop stop-opacity="0"/>
<stop offset="1" stop-color="#BAB6B6"/>
</linearGradient>
<linearGradient id="paint4_linear_231_1400" x1="53.8294" y1="-13.5" x2="142.122" y2="-0.401728" gradientUnits="userSpaceOnUse">
<stop stop-opacity="0"/>
<stop offset="1" stop-color="#BAB6B6"/>
</linearGradient>
<linearGradient id="paint5_linear_231_1400" x1="66.0513" y1="-13.5" x2="152.496" y2="-0.955893" gradientUnits="userSpaceOnUse">
<stop stop-opacity="0"/>
<stop offset="1" stop-color="#BAB6B6"/>
</linearGradient>
<linearGradient id="paint6_linear_231_1400" x1="78.2727" y1="-13.5" x2="162.865" y2="-1.49881" gradientUnits="userSpaceOnUse">
<stop stop-opacity="0"/>
<stop offset="1" stop-color="#BAB6B6"/>
</linearGradient>
<linearGradient id="paint7_linear_231_1400" x1="90.4921" y1="-13.5" x2="173.227" y2="-2.03005" gradientUnits="userSpaceOnUse">
<stop stop-opacity="0"/>
<stop offset="1" stop-color="#BAB6B6"/>
</linearGradient>
<linearGradient id="paint8_linear_231_1400" x1="102.714" y1="-13.5" x2="183.586" y2="-2.55032" gradientUnits="userSpaceOnUse">
<stop stop-opacity="0"/>
<stop offset="1" stop-color="#BAB6B6"/>
</linearGradient>
<linearGradient id="paint9_linear_231_1400" x1="114.935" y1="-13.5" x2="193.94" y2="-3.05917" gradientUnits="userSpaceOnUse">
<stop stop-opacity="0"/>
<stop offset="1" stop-color="#BAB6B6"/>
</linearGradient>
</defs>
</svg>
