<svg width="31" height="24" viewBox="0 0 31 24" fill="none" xmlns="http://www.w3.org/2000/svg">
<path d="M10.0444 0C8.99442 0 5.82873 1.34326 5.26077 1.61171C4.69282 1.88016 4.06242 2.71817 3.34711 4.10124C2.63083 5.48431 2.05605 7.10112 1.12215 9.47939C0.189223 11.8577 -0.0283946 16.4427 0.00283295 17.8421C0.0340605 19.2415 0.187271 20.3347 1.55836 21.1625C2.92847 21.9893 4.14049 22.8549 5.41594 23.3754C6.69236 23.896 7.56283 24.2706 8.1542 23.75C8.74558 23.2295 9.13494 22.318 9.13494 22.318C9.13494 22.318 9.69509 21.5044 8.63726 21.0165C7.57942 20.5276 7.0505 20.1857 7.09637 19.6814C7.14321 19.1772 7.2203 18.9006 7.48476 18.9659C7.74922 19.0312 8.3728 20.202 10.7685 20.7389C13.1643 21.2758 15.4995 21.1952 15.4995 21.1952C15.4995 21.1952 17.8357 21.2768 20.2315 20.7389C22.6272 20.202 23.2498 19.0312 23.5143 18.9659C23.7787 18.9006 23.8558 19.1772 23.9027 19.6804C23.9495 20.1857 23.4206 20.5276 22.3627 21.0165C21.3049 21.5044 21.8651 22.318 21.8651 22.318C21.8651 22.318 22.2544 23.2284 22.8458 23.75C23.4362 24.2706 24.3076 23.896 25.5831 23.3754C26.8585 22.8549 28.0715 21.9903 29.4416 21.1625C30.8127 20.3347 30.9659 19.2415 30.9972 17.8421C31.0284 16.4437 30.8108 11.8577 29.8769 9.47939C28.944 7.10112 28.3682 5.48431 27.6519 4.10124C26.9376 2.71817 26.3062 1.88016 25.7392 1.61069C25.1713 1.34326 22.0046 0 20.9546 0C19.9046 0 19.5942 0.765537 19.5942 0.765537L19.2283 1.61171C19.2283 1.61171 16.7691 1.12279 15.5161 1.12177C14.2631 1.12177 11.7717 1.61171 11.7717 1.61171L11.4058 0.764516C11.4058 0.764516 11.0955 0 10.0444 0ZM10.1586 10.1541H10.1977C11.7288 10.1541 12.9691 11.5555 12.9691 13.2836C12.9691 15.0127 11.7288 16.4131 10.1977 16.4131C8.66653 16.4131 7.42621 15.0127 7.42621 13.2836C7.42523 11.5719 8.64311 10.1776 10.1586 10.1541ZM20.8023 10.1541H20.8414C22.3569 10.1776 23.5738 11.5729 23.5738 13.2836C23.5738 15.0127 22.3335 16.4131 20.8023 16.4131C19.2702 16.4131 18.0309 15.0127 18.0309 13.2836C18.0309 11.5555 19.2702 10.1541 20.8023 10.1541Z" fill="black"/>
</svg>
