<svg width="37" height="34" viewBox="0 0 37 34" fill="none" xmlns="http://www.w3.org/2000/svg">
<path fill-rule="evenodd" clip-rule="evenodd" d="M18.4998 0.24707C8.77169 0.24707 0.945312 7.902 0.945312 17.417C0.945312 25.0004 5.99223 31.4391 12.9409 33.7284C13.8186 33.8715 14.1112 33.3707 14.1112 32.8699C14.1112 32.4407 14.1112 31.3676 14.1112 29.9367C9.21055 31.0099 8.18654 27.6474 8.18654 27.6474C7.38196 25.6443 6.21166 25.1435 6.21166 25.1435C4.6025 24.0704 6.35795 24.0704 6.35795 24.0704C8.1134 24.2134 9.06427 25.8589 9.06427 25.8589C10.6003 28.5059 13.1603 27.719 14.1843 27.2897C14.3306 26.1451 14.7695 25.4296 15.2815 25.0004C11.4049 24.5711 7.30882 23.0688 7.30882 16.487C7.30882 14.6269 7.96711 13.053 9.13741 11.9083C8.99112 11.4791 8.33283 9.76207 9.2837 7.32967C9.2837 7.32967 10.7466 6.90042 14.1112 9.1182C15.5009 8.76049 17.0369 8.54587 18.4998 8.54587C19.9627 8.54587 21.4987 8.76049 22.8884 9.1182C26.253 6.90042 27.7159 7.32967 27.7159 7.32967C28.6668 9.69053 28.0816 11.4075 27.8622 11.9083C28.9594 13.1245 29.6908 14.6269 29.6908 16.487C29.6908 23.0688 25.5947 24.4996 21.645 24.9288C22.3033 25.4296 22.8153 26.5028 22.8153 28.0767C22.8153 30.366 22.8153 32.2261 22.8153 32.7984C22.8153 33.2276 23.1079 33.8 24.0587 33.6569C31.0074 31.4391 36.0543 25.0004 36.0543 17.417C36.0543 7.902 28.2279 0.24707 18.4998 0.24707Z" fill="black"/>
</svg>
