<svg width="33" height="21" viewBox="0 0 33 21" fill="none" xmlns="http://www.w3.org/2000/svg">
<path fill-rule="evenodd" clip-rule="evenodd" d="M9.8226 3.35126C8.90288 3.35145 8.00379 3.61601 7.23853 4.11163C6.47328 4.60724 5.87609 5.31175 5.52217 6.13642C4.86185 7.67715 3.97126 11.4919 3.56867 13.3142C3.45582 13.8179 3.41007 14.2519 3.44667 14.6416C3.56562 15.9453 3.98041 16.5675 4.37081 16.8875C4.77798 17.2238 5.39712 17.4252 6.30295 17.4252C7.29876 17.4252 8.22443 16.926 8.75359 16.1067L11.2622 12.2075L14.5973 6.80753L13.8196 5.54828C13.4055 4.87818 12.8198 4.32365 12.1197 3.93864C11.4195 3.55364 10.6271 3.35128 9.8226 3.35126ZM16.3754 3.92903C15.6284 2.75948 14.564 1.81253 13.2992 1.19214C12.0344 0.571759 10.6181 0.301937 9.20582 0.412304C7.79352 0.522671 6.43984 1.00896 5.29339 1.81777C4.14695 2.62658 3.25209 3.72665 2.70706 4.99717C1.91407 6.84753 0.964008 10.9794 0.587338 12.6919C0.41296 13.4167 0.352293 14.1629 0.407391 14.9053C0.576664 16.7423 1.23088 18.1852 2.39749 19.1467C3.54579 20.0934 4.97012 20.3882 6.30295 20.3882C7.31029 20.3883 8.30111 20.1395 9.18225 19.6653C10.0634 19.191 10.8059 18.5068 11.34 17.6771L13.8562 13.766L13.8714 13.7438L16.3754 9.68751L18.8794 13.7438L18.8947 13.766L21.4109 17.6771C21.9448 18.5066 22.6871 19.1907 23.5679 19.6649C24.4488 20.1392 25.4393 20.388 26.4464 20.3882C27.9454 20.3882 29.504 19.9734 30.6736 18.7793C31.8326 17.5956 32.3877 15.8756 32.3877 13.7216C32.3877 12.3542 31.854 10.3645 31.3583 8.77196C30.9804 7.56434 30.5659 6.36778 30.1155 5.18384C29.5988 3.88492 28.7196 2.75163 27.5767 1.91123C26.4337 1.07083 25.0723 0.556598 23.6451 0.426266C22.218 0.295933 20.7817 0.554665 19.4976 1.17341C18.2134 1.79215 17.1322 2.74641 16.3754 3.92903ZM18.1536 6.80753L21.4872 12.2075L23.9957 16.1052C24.5234 16.926 25.4506 17.4252 26.4464 17.4252C27.3873 17.4252 28.0369 17.1734 28.4639 16.7364C28.9031 16.289 29.3377 15.4178 29.3377 13.7216C29.3377 12.8564 28.9489 11.2697 28.438 9.62677C28.079 8.47851 27.6854 7.34074 27.2577 6.21494C26.9377 5.43013 26.3983 4.74785 25.7003 4.24512C25.0023 3.7424 24.1735 3.43925 23.3076 3.36992C22.4416 3.30058 21.5729 3.46782 20.7996 3.85274C20.0263 4.23767 19.3792 4.82495 18.9313 5.54828L18.1536 6.80753Z" fill="black"/>
</svg>
